<svg xmlns="http://www.w3.org/2000/svg" viewBox="0 0 420.09 168.88"><defs><style>.cls-1{font-size:103.65px;}.cls-1,.cls-6{fill:#fffefe;font-family:NissanBrand-Bold, Nissan Brand;font-weight:700;}.cls-2{fill:#a41e20;}.cls-2,.cls-3,.cls-4,.cls-5{fill-rule:evenodd;}.cls-3,.cls-7{fill:#fff;}.cls-4{fill:#791e19;}.cls-5{fill:#c52825;}.cls-6{font-size:70px;letter-spacing:0.03em;}</style></defs><g id="Layer_2" data-name="Layer 2"><g id="LOGO_I" data-name="LOGO I"><text class="cls-1" transform="translate(93.49 137.79)">ASINO</text><g id="C"><path class="cls-2" d="M10.72,103H0a55.6,55.6,0,0,0,16.33,39.46l7.57-7.57A45,45,0,0,1,10.72,103Z"/><path class="cls-3" d="M55.54,57.84V47.12A56,56,0,0,0,16.25,63.7l7.57,7.57A44.63,44.63,0,0,1,55.54,57.84Z"/><path class="cls-3" d="M55.88,126.9A23.9,23.9,0,1,1,72.81,86.07l15-15a45.1,45.1,0,0,0-32-13.27h-.42V68.3A34.25,34.25,0,0,0,31.21,78.59l-7.65-3.83c-8.08,8.17-10.21,12.93-10.21,25.35l7.83,2.8a34.62,34.62,0,0,0,10,24.41l-3.06,7.49c8.08,8.16,12.68,9.53,25.09,9.61.17,0,2.39,3.66,2.56,3.66A45.11,45.11,0,0,0,87.61,135L72.55,119.92A23.17,23.17,0,0,1,55.88,126.9Z"/><path class="cls-4" d="M31.3,127.41l-7.48,7.48a44.78,44.78,0,0,0,31.64,13.27V137.62A34.69,34.69,0,0,1,31.3,127.41Z"/><path class="cls-5" d="M31.21,78.67l-7.48-7.48a45.38,45.38,0,0,0-13,31.81H21.26A34.88,34.88,0,0,1,31.21,78.67Z"/></g><text class="cls-6" transform="translate(120.52 57.75)">1024</text><path class="cls-7" d="M65.69,103.35v6.42a8.7,8.7,0,0,1-7.2,8.46,13.34,13.34,0,0,1-7.06-.32A8.6,8.6,0,0,1,45.7,112a7.66,7.66,0,0,1-.29-2.07c0-4.39,0-8.78,0-13.17a8.84,8.84,0,0,1,3.52-7,10.37,10.37,0,0,1,7.27-2.3,9.92,9.92,0,0,1,9.07,6.76,10.46,10.46,0,0,1,.41,2.66C65.73,99,65.69,101.19,65.69,103.35ZM55,89.27c-.61.11-1.14.18-1.66.3a7.77,7.77,0,0,0-6.09,7.67c.13,4.14.05,8.29,0,12.43a6.43,6.43,0,0,0,3.63,6c2.35,1.3,4.9,1.21,7.43.71a6.88,6.88,0,0,0,5.55-7.06c-.14-4.1,0-8.21,0-12.32a7.32,7.32,0,0,0-.07-1.33,7.51,7.51,0,0,0-4.48-5.58,6.94,6.94,0,0,0-3.17-.74c0,.64,0,1.24,0,1.83a.59.59,0,0,0,.23.37A1.51,1.51,0,0,1,57,92.83c0,1.36,0,2.71,0,4.07,0,.31-.09.77-.3.9-.7.44-.58,1.08-.58,1.71V107c0,.37-.19.62-.55.62A.55.55,0,0,1,55,107c0-.13,0-.26,0-.39q0-3.9,0-7.81a.68.68,0,0,0-.32-.69,1.36,1.36,0,0,1-.58-1.25c0-1.31,0-2.61,0-3.91a1.58,1.58,0,0,1,.67-1.39.56.56,0,0,0,.22-.38C55,90.58,55,90,55,89.27Z"/></g></g></svg>