<svg xmlns="http://www.w3.org/2000/svg" viewBox="0 0 420.09 166.5"><defs><style>.cls-1{font-size:103.65px;}.cls-1,.cls-6{fill:#fffdfd;font-family:NissanBrand-Bold, Nissan Brand;font-weight:700;}.cls-2{fill:#c50305;}.cls-2,.cls-3,.cls-4,.cls-5{fill-rule:evenodd;}.cls-3{fill:#fff;}.cls-4{fill:#7f0001;}.cls-5{fill:#fe120c;}.cls-6{font-size:71.26px;letter-spacing:0.03em;}</style></defs><g id="Layer_2" data-name="Layer 2"><g id="LOGO_I" data-name="LOGO I"><text class="cls-1" transform="translate(93.49 135.4)">ASINO</text><g id="C"><path class="cls-2" d="M10.72,100.62H0a55.6,55.6,0,0,0,16.33,39.46l7.57-7.57A45,45,0,0,1,10.72,100.62Z"/><path class="cls-3" d="M55.54,55.45V44.74A56,56,0,0,0,16.25,61.32l7.57,7.57A44.68,44.68,0,0,1,55.54,55.45Z"/><path class="cls-3" d="M55.88,124.52A23.9,23.9,0,1,1,72.81,83.69l15-15a45.1,45.1,0,0,0-32-13.27h-.42V65.91a34.3,34.3,0,0,0-24.25,10.3l-7.65-3.83c-8.08,8.16-10.21,12.93-10.21,25.34l7.83,2.81a34.62,34.62,0,0,0,10,24.41l-3.06,7.49c8.08,8.16,12.68,9.52,25.09,9.61.17,0,2.39,3.66,2.56,3.66a45.11,45.11,0,0,0,31.81-13.1L72.55,117.54A23.17,23.17,0,0,1,55.88,124.52Z"/><path class="cls-4" d="M31.3,125l-7.48,7.48a44.78,44.78,0,0,0,31.64,13.27V135.23A34.64,34.64,0,0,1,31.3,125Z"/><path class="cls-5" d="M31.21,76.29l-7.48-7.48a45.38,45.38,0,0,0-13,31.81H21.26A34.88,34.88,0,0,1,31.21,76.29Z"/></g><text class="cls-6" transform="translate(115.13 58.79) scale(0.96 1)">1024</text></g></g></svg>